<?xml version="1.0" standalone="no"?>
<!DOCTYPE svg PUBLIC "-//W3C//DTD SVG 20010904//EN"
 "http://www.w3.org/TR/2001/REC-SVG-20010904/DTD/svg10.dtd">
<svg version="1.0" xmlns="http://www.w3.org/2000/svg"
 width="700.000000pt" height="700.000000pt" viewBox="0 0 700.000000 700.000000"
 preserveAspectRatio="xMidYMid meet">
<metadata>
Created by potrace 1.11, written by Peter Selinger 2001-2013
</metadata>
<g transform="translate(0.000000,700.000000) scale(0.100000,-0.100000)"
fill="#000000" stroke="none">
<path d="M1708 5195 c-1 -1 -52 -5 -113 -9 -60 -3 -123 -8 -140 -11 -115 -20
-198 -40 -269 -61 -91 -29 -282 -110 -307 -131 -8 -7 -18 -13 -22 -13 -7 0
-149 -90 -157 -99 -3 -4 -30 -25 -60 -47 -30 -23 -93 -79 -139 -125 -195 -195
-333 -419 -417 -676 -32 -98 -44 -152 -70 -298 -10 -59 -12 -334 -3 -401 4
-33 11 -81 14 -109 14 -108 83 -326 142 -447 199 -411 559 -729 988 -872 105
-36 226 -64 306 -71 35 -4 70 -8 78 -11 27 -9 292 -5 348 5 32 6 74 13 93 16
19 3 77 17 129 31 401 108 777 379 1200 862 l81 93 -112 142 c-227 288 -311
392 -318 392 -3 0 -47 -47 -96 -105 -356 -419 -637 -642 -916 -728 -124 -39
-284 -46 -428 -20 -212 37 -392 130 -536 274 -300 301 -385 715 -229 1109 144
364 521 625 910 628 108 1 193 -8 245 -25 8 -3 40 -13 70 -22 231 -74 482
-265 770 -586 47 -52 87 -97 90 -100 15 -13 244 -299 409 -510 494 -629 750
-900 1066 -1126 182 -130 463 -263 615 -290 14 -3 33 -7 42 -10 23 -7 47 -11
109 -19 30 -4 65 -9 79 -11 36 -5 258 -5 305 0 304 34 576 135 816 302 315
220 559 567 655 929 48 178 59 265 58 460 0 178 -11 275 -49 415 -109 412
-345 746 -695 985 -92 63 -286 160 -389 194 -84 29 -243 68 -306 76 -28 3 -64
8 -80 10 -42 6 -295 6 -325 1 -33 -6 -98 -16 -133 -21 -16 -2 -71 -16 -124
-30 -404 -110 -781 -381 -1202 -863 l-82 -93 33 -42 c18 -23 56 -69 83 -103
28 -34 109 -137 180 -228 72 -91 133 -164 136 -163 3 1 48 52 99 112 464 546
817 771 1190 759 258 -8 489 -103 672 -276 174 -165 281 -376 313 -622 7 -53
8 -198 1 -232 -2 -12 -7 -39 -10 -60 -48 -298 -254 -580 -530 -724 -222 -115
-496 -146 -711 -81 -232 71 -428 203 -678 456 -143 144 -243 261 -520 610
-467 586 -562 700 -731 874 -61 62 -116 118 -122 125 -73 76 -258 225 -384
309 -257 170 -541 274 -806 292 -49 4 -94 8 -101 10 -6 2 -13 2 -15 0z"/>
</g>
</svg>
